<svg width="38" height="37" viewBox="0 0 38 37" fill="none" xmlns="http://www.w3.org/2000/svg">
<path d="M20.285 26.265C20.1593 26.1393 20.0595 25.9902 19.9915 25.826C19.9234 25.6617 19.8884 25.4857 19.8884 25.308C19.8884 25.1303 19.9234 24.9542 19.9915 24.79C20.0595 24.6258 20.1593 24.4766 20.285 24.351L24.785 19.851H9.94799C9.58889 19.851 9.2445 19.7083 8.99057 19.4544C8.73665 19.2005 8.59399 18.8561 8.59399 18.497C8.59399 18.1379 8.73665 17.7935 8.99057 17.5396C9.2445 17.2856 9.58889 17.143 9.94799 17.143H24.782L20.282 12.643C20.0611 12.3835 19.9462 12.0502 19.9602 11.7097C19.9742 11.3691 20.1162 11.0464 20.3576 10.806C20.5991 10.5655 20.9224 10.4249 21.263 10.4123C21.6036 10.3997 21.9364 10.516 22.195 10.738L29.007 17.538C29.1328 17.6636 29.2327 17.8127 29.3008 17.977C29.3689 18.1412 29.404 18.3172 29.404 18.495C29.404 18.6728 29.3689 18.8488 29.3008 19.013C29.2327 19.1772 29.1328 19.3264 29.007 19.452L22.195 26.265C21.9411 26.5187 21.5969 26.6612 21.238 26.6612C20.8791 26.6612 20.5349 26.5187 20.281 26.265H20.285Z" fill="white"/>
<path d="M19 2.707C15.8765 2.70713 12.8233 3.63345 10.2262 5.36882C7.62921 7.10418 5.60509 9.57066 4.40981 12.4564C3.21453 15.3421 2.90178 18.5174 3.5111 21.5809C4.12042 24.6443 5.62445 27.4583 7.833 29.667C10.8025 32.5907 14.8073 34.2223 18.9746 34.2061C23.1418 34.1899 27.1338 32.5273 30.0805 29.5805C33.0273 26.6338 34.6899 22.6418 34.7061 18.4746C34.7223 14.3073 33.0907 10.3025 30.167 7.333C28.704 5.86184 26.9637 4.69547 25.0469 3.90142C23.1301 3.10736 21.0748 2.70139 19 2.707ZM19 0C22.659 0 26.2357 1.08501 29.278 3.11781C32.3204 5.15062 34.6915 8.03992 36.0918 11.4204C37.492 14.8008 37.8584 18.5205 37.1445 22.1092C36.4307 25.6978 34.6687 28.9942 32.0815 31.5815C29.4942 34.1687 26.1978 35.9307 22.6092 36.6445C19.0205 37.3584 15.3008 36.992 11.9204 35.5918C8.53992 34.1915 5.65062 31.8204 3.61781 28.778C1.58501 25.7357 0.5 22.159 0.5 18.5C0.5 13.5935 2.4491 8.88795 5.91852 5.41852C9.38795 1.9491 14.0935 0 19 0Z" fill="white"/>
</svg>
