<svg width="37" height="37" viewBox="0 0 37 37" fill="none" xmlns="http://www.w3.org/2000/svg">
<path d="M19.785 26.265C19.6593 26.1393 19.5595 25.9902 19.4915 25.826C19.4234 25.6617 19.3884 25.4857 19.3884 25.308C19.3884 25.1303 19.4234 24.9542 19.4915 24.79C19.5595 24.6258 19.6593 24.4766 19.785 24.351L24.285 19.851H9.44799C9.08889 19.851 8.7445 19.7083 8.49057 19.4544C8.23665 19.2005 8.09399 18.8561 8.09399 18.497C8.09399 18.1379 8.23665 17.7935 8.49057 17.5396C8.7445 17.2856 9.08889 17.143 9.44799 17.143H24.282L19.782 12.643C19.5611 12.3835 19.4462 12.0502 19.4602 11.7097C19.4742 11.3691 19.6162 11.0464 19.8576 10.806C20.0991 10.5655 20.4224 10.4249 20.763 10.4123C21.1036 10.3997 21.4364 10.516 21.695 10.738L28.507 17.538C28.6328 17.6636 28.7327 17.8127 28.8008 17.977C28.8689 18.1412 28.904 18.3172 28.904 18.495C28.904 18.6728 28.8689 18.8488 28.8008 19.013C28.7327 19.1772 28.6328 19.3264 28.507 19.452L21.695 26.265C21.4411 26.5187 21.0969 26.6612 20.738 26.6612C20.3791 26.6612 20.0349 26.5187 19.781 26.265H19.785Z" fill="#333333"/>
<path d="M18.5 2.707C15.3765 2.70713 12.3233 3.63345 9.72623 5.36882C7.12921 7.10418 5.10509 9.57066 3.90981 12.4564C2.71453 15.3421 2.40178 18.5174 3.0111 21.5809C3.62042 24.6443 5.12445 27.4583 7.333 29.667C10.3025 32.5907 14.3073 34.2223 18.4746 34.2061C22.6418 34.1899 26.6338 32.5273 29.5805 29.5805C32.5273 26.6338 34.1899 22.6418 34.2061 18.4746C34.2223 14.3073 32.5907 10.3025 29.667 7.333C28.204 5.86184 26.4637 4.69547 24.5469 3.90142C22.6301 3.10736 20.5748 2.70139 18.5 2.707ZM18.5 0C22.159 0 25.7357 1.08501 28.778 3.11781C31.8204 5.15062 34.1915 8.03992 35.5918 11.4204C36.992 14.8008 37.3584 18.5205 36.6445 22.1092C35.9307 25.6978 34.1687 28.9942 31.5815 31.5815C28.9942 34.1687 25.6978 35.9307 22.1092 36.6445C18.5205 37.3584 14.8008 36.992 11.4204 35.5918C8.03992 34.1915 5.15062 31.8204 3.11781 28.778C1.08501 25.7357 0 22.159 0 18.5C0 13.5935 1.9491 8.88795 5.41852 5.41852C8.88795 1.9491 13.5935 0 18.5 0Z" fill="#333333"/>
</svg>
