<svg width="16" height="27" viewBox="0 0 16 27" fill="none" xmlns="http://www.w3.org/2000/svg">
<path d="M9.45352 26.9688H5.13576C4.78884 26.9686 4.45618 26.8307 4.21087 26.5854C3.96556 26.3401 3.82764 26.0074 3.82743 25.6605V15.9208H1.30671C0.960272 15.9199 0.628281 15.7818 0.383388 15.5368C0.138496 15.2917 0.00064407 14.9597 0 14.6132V10.4394C0.000215415 10.0925 0.138127 9.75982 0.38344 9.51451C0.628754 9.2692 0.961409 9.13129 1.30834 9.13107H3.82906V7.04131C3.75704 5.15985 4.43364 3.32654 5.71065 1.94295C6.36779 1.29731 7.14966 0.792421 8.0085 0.459121C8.86734 0.125821 9.7851 -0.0288908 10.7057 0.00443676L13.9989 0.0101287C14.3454 0.0112037 14.6773 0.149468 14.922 0.394666C15.1668 0.639863 15.3044 0.972026 15.3048 1.31846V5.19224C15.3046 5.53903 15.1668 5.87156 14.9217 6.11685C14.6765 6.36214 14.3441 6.50015 13.9973 6.50058H11.7799C11.1034 6.50058 10.9318 6.63637 10.8944 6.67784C10.8334 6.74696 10.7618 6.9413 10.7618 7.47959V9.13107H13.8306C14.0578 9.12881 14.2818 9.1848 14.4811 9.2937C14.6849 9.40733 14.8547 9.57324 14.9731 9.77433C15.0914 9.97543 15.154 10.2044 15.1544 10.4378V14.6116C15.154 14.9584 15.016 15.2908 14.7707 15.536C14.5254 15.7811 14.1929 15.9189 13.8461 15.9191H10.7618V25.6613C10.7614 26.0082 10.6234 26.3407 10.3782 26.586C10.1329 26.8312 9.80037 26.9684 9.45352 26.9688ZM5.40816 25.3881H9.18111V15.2101C9.18133 14.9785 9.27341 14.7565 9.43714 14.5928C9.60087 14.4291 9.82287 14.337 10.0544 14.3368H13.5688V10.7094H10.0536C9.82206 10.7092 9.60005 10.6171 9.43632 10.4533C9.27259 10.2896 9.18052 10.0676 9.1803 9.83606V7.47797C9.12324 6.8181 9.31141 6.16036 9.70884 5.63052C9.98443 5.37319 10.3112 5.17683 10.6677 5.05423C11.0243 4.93164 11.4027 4.88557 11.7783 4.91903H13.7225V1.59005L10.7033 1.58517C7.43694 1.58517 5.40654 3.67656 5.40654 7.04212V9.83931C5.40632 10.0709 5.31425 10.2929 5.15052 10.4566C4.98678 10.6203 4.76478 10.7124 4.53323 10.7126H1.58074V14.34H4.53486C4.76585 14.3402 4.98736 14.4319 5.151 14.5949C5.31463 14.7579 5.40709 14.9791 5.40816 15.2101V25.3881Z" fill="white"/>
</svg>
