<svg width="76" height="97" viewBox="0 0 76 97" fill="none" xmlns="http://www.w3.org/2000/svg">
<path d="M10.6351 0C4.76518 0 0 4.77228 0 10.6496V74.4926C0 80.3638 4.76518 85.13 10.6351 85.13H38.0607C38.1032 85.13 38.1275 85.0936 38.1821 85.0875C39.7085 88.6205 42.2338 91.6302 45.4477 93.7466C48.6615 95.863 52.4237 96.9939 56.2716 97C61.5019 96.9936 66.5162 94.9125 70.2146 91.2133C73.913 87.5141 75.9936 82.4987 76 77.2673C75.9921 73.355 74.8223 69.5332 72.6392 66.287C70.456 63.0407 67.3579 60.5164 63.738 59.0342V25.9318C63.738 25.8833 63.6834 25.8468 63.6773 25.7922C63.6984 25.4002 63.563 25.0158 63.301 24.7236L39.0198 0.437156C38.7042 0.133575 38.2671 0.0485728 37.8422 0.0728593C37.7815 0.0667877 37.739 0 37.6783 0H10.6351ZM10.6351 3.0358H36.4217V16.7698C36.4217 22.5925 41.1565 27.3222 46.9719 27.3222H60.7029V58.081C59.2516 57.7293 57.7647 57.546 56.2716 57.5346C51.0412 57.541 46.027 59.622 42.3285 63.3212C38.6301 67.0204 36.5496 72.0358 36.5431 77.2673C36.5431 78.943 36.8102 80.5459 37.2048 82.0942H10.6351C6.44665 82.0942 3.03514 78.6698 3.03514 74.4804V10.6496C3.03514 6.45412 6.44665 3.0358 10.6351 3.0358ZM39.4569 5.41587L58.4265 24.2864H46.9719C44.9798 24.2832 43.0702 23.4903 41.6615 22.0813C40.2529 20.6724 39.4601 18.7623 39.4569 16.7698V5.41587ZM56.2716 60.5704C60.6979 60.5736 64.942 62.3337 68.072 65.4643C71.2019 68.5949 72.9616 72.84 72.9649 77.2673C72.9616 81.6946 71.2019 85.9396 68.072 89.0702C64.942 92.2008 60.6979 93.961 56.2716 93.9642C51.8452 93.961 47.6011 92.2008 44.4712 89.0702C41.3413 85.9396 39.5815 81.6946 39.5783 77.2673C39.5815 72.84 41.3413 68.5949 44.4712 65.4643C47.6011 62.3337 51.8452 60.5736 56.2716 60.5704ZM63.0096 70.8678L54.0013 79.8659L49.5093 75.3851L47.3786 77.5284L54.0013 84.1586L65.1585 72.9989L63.0096 70.8678Z" fill="#231F20"/>
</svg>
