<svg width="129" height="129" viewBox="0 0 129 129" fill="none" xmlns="http://www.w3.org/2000/svg">
<rect width="129" height="129" rx="64.5" fill="#E6E6E6"/>
<path d="M64.5 36C52.0943 36 42 46.0483 42 58.3929C42 63.2643 43.5668 67.9058 46.5327 71.8286C46.5327 71.8286 47.1464 72.6306 47.2445 72.7467L64.5 93L81.7616 72.7385C81.8516 72.6306 82.4673 71.8286 82.4673 71.8286L82.4693 71.8225C85.4134 67.9589 87.0047 63.2418 87 58.3929C87 46.0483 76.9057 36 64.5 36ZM63.4773 44.1429C64.291 44.1429 65.0714 44.4646 65.6468 45.0372C66.2222 45.6099 66.5454 46.3866 66.5454 47.1964C66.5454 48.0063 66.2222 48.783 65.6468 49.3556C65.0714 49.9283 64.291 50.25 63.4773 50.25C62.6635 50.25 61.8831 49.9283 61.3077 49.3556C60.7323 48.783 60.4091 48.0063 60.4091 47.1964C60.4091 46.3866 60.7323 45.6099 61.3077 45.0372C61.8831 44.4646 62.6635 44.1429 63.4773 44.1429ZM72.6818 72.6429H56.3182V68.5714H62.4545V58.3929H58.3636V54.3214H66.5454V68.5714H72.6818V72.6429Z" fill="black"/>
</svg>
