<svg width="19" height="27" viewBox="0 0 19 27" fill="none" xmlns="http://www.w3.org/2000/svg">
<path d="M9.25 0.285706C4.13607 0.285706 0 4.42178 0 9.53571C0 16.4732 9.25 26.7143 9.25 26.7143C9.25 26.7143 18.5 16.4732 18.5 9.53571C18.5 4.42178 14.3639 0.285706 9.25 0.285706ZM2.64286 9.53571C2.64286 5.88856 5.60286 2.92856 9.25 2.92856C12.8971 2.92856 15.8571 5.88856 15.8571 9.53571C15.8571 13.3414 12.0514 19.0368 9.25 22.5914C6.50143 19.0632 2.64286 13.3018 2.64286 9.53571Z" fill="black"/>
<path d="M9.25 12.8393C11.0745 12.8393 12.5536 11.3602 12.5536 9.53569C12.5536 7.71118 11.0745 6.23212 9.25 6.23212C7.42549 6.23212 5.94643 7.71118 5.94643 9.53569C5.94643 11.3602 7.42549 12.8393 9.25 12.8393Z" fill="black"/>
</svg>
