<svg width="26" height="26" viewBox="0 0 26 26" fill="none" xmlns="http://www.w3.org/2000/svg">
<path d="M20.8334 25.9998C19.7003 25.9998 18.1086 25.59 15.7252 24.2587C12.8269 22.6337 10.5851 21.1334 7.70244 18.2589C4.92312 15.4818 3.57061 13.6839 1.67768 10.24C-0.460793 6.35155 -0.0962546 4.31331 0.311239 3.44218C0.796517 2.40101 1.51282 1.77828 2.43868 1.16019C2.96457 0.815706 3.52108 0.520406 4.10117 0.278036C4.15921 0.253081 4.2132 0.229286 4.26138 0.207812C4.54871 0.078391 4.98407 -0.117192 5.53552 0.0917394C5.90354 0.229866 6.23209 0.512503 6.7464 1.02032C7.80112 2.06033 9.24244 4.37657 9.77416 5.51408C10.1311 6.28074 10.3674 6.78682 10.368 7.35442C10.368 8.01893 10.0336 8.53139 9.62788 9.08448C9.55183 9.18837 9.47637 9.28761 9.40323 9.38395C8.96149 9.96431 8.86455 10.132 8.9284 10.4315C9.05785 11.0333 10.0232 12.8249 11.6096 14.4076C13.1961 15.9902 14.9363 16.8944 15.5406 17.0233C15.8529 17.09 16.0241 16.989 16.6232 16.5317C16.7091 16.4661 16.7973 16.3982 16.8896 16.3303C17.5084 15.8701 17.9972 15.5445 18.6461 15.5445H18.6496C19.2144 15.5445 19.698 15.7894 20.499 16.1934C21.5439 16.7203 23.9302 18.1428 24.9768 19.1985C25.4859 19.7115 25.7697 20.0389 25.9085 20.4062C26.1175 20.9593 25.9207 21.3928 25.7924 21.683C25.7709 21.7312 25.7471 21.784 25.7221 21.8426C25.4778 22.4216 25.1807 22.9768 24.8346 23.5013C24.2176 24.4241 23.5924 25.1385 22.5487 25.6243C22.0128 25.8778 21.4262 26.0062 20.8334 25.9998Z" fill="white"/>
</svg>
