<svg width="14" height="19" viewBox="0 0 14 19" fill="none" xmlns="http://www.w3.org/2000/svg">
<path d="M13.2219 2.15994H10.9868V1.36004C10.9868 1.0542 10.7281 0.79541 10.4222 0.79541H3.6466C3.34075 0.79541 3.08196 1.0542 3.08196 1.36004V2.15994H0.564634C0.258791 2.15994 0 2.41873 0 2.72458V17.6403C0 17.9462 0.258791 18.205 0.564634 18.205H13.2219C13.5277 18.205 13.7865 17.9462 13.7865 17.6403V2.72458C13.7865 2.41873 13.5277 2.15994 13.2219 2.15994ZM4.21123 1.92468H9.85757V3.71269H4.21123V1.92468ZM12.6572 17.0757H1.12927V3.28921H3.05844V4.27732C3.05844 4.58317 3.31723 4.84196 3.62307 4.84196H10.3987C10.7045 4.84196 10.9633 4.58317 10.9633 4.27732V3.28921H12.6572V17.0757Z" fill="black"/>
<path d="M11.1053 10.606H2.94159C2.63574 10.606 2.37695 10.8647 2.37695 11.1706C2.37695 11.4764 2.63574 11.7352 2.94159 11.7352H11.1053C11.4111 11.7352 11.6699 11.4764 11.6699 11.1706C11.6699 10.8647 11.4111 10.606 11.1053 10.606Z" fill="black"/>
<path d="M7.03519 13.3335H2.94159C2.63574 13.3335 2.37695 13.5923 2.37695 13.8981C2.37695 14.204 2.63574 14.4628 2.94159 14.4628H7.01166C7.3175 14.4628 7.57629 14.204 7.57629 13.8981C7.59982 13.5923 7.34103 13.3335 7.03519 13.3335Z" fill="black"/>
<path d="M2.37695 8.41766C2.37695 8.72351 2.63574 8.9823 2.94159 8.9823H11.1053C11.4111 8.9823 11.6699 8.72351 11.6699 8.41766C11.6699 8.11182 11.4111 7.85303 11.1053 7.85303H2.94159C2.63574 7.85303 2.37695 8.11182 2.37695 8.41766Z" fill="black"/>
</svg>
