<svg width="69" height="69" viewBox="0 0 69 69" fill="none" xmlns="http://www.w3.org/2000/svg">
<path d="M34.5 0C27.6766 0 21.0063 2.02339 15.3328 5.8143C9.65934 9.60521 5.23739 14.9934 2.62617 21.2974C0.0149483 27.6015 -0.668267 34.5383 0.662923 41.2306C1.99411 47.923 5.27992 54.0703 10.1048 58.8952C14.9297 63.7201 21.0771 67.0059 27.7694 68.3371C34.4617 69.6683 41.3985 68.9851 47.7026 66.3738C54.0066 63.7626 59.3948 59.3407 63.1857 53.6672C66.9766 47.9937 69 41.3234 69 34.5C69 25.35 65.3652 16.5748 58.8952 10.1048C52.4252 3.63481 43.65 0 34.5 0ZM29.5714 48.2753L17.25 35.9539L21.1682 32.0357L29.5714 40.4389L47.8318 22.1786L51.7648 26.0869L29.5714 48.2753Z" fill="#29A0EA"/>
</svg>
