<svg width="74" height="74" viewBox="0 0 74 74" fill="none" xmlns="http://www.w3.org/2000/svg">
<path d="M37 0C29.6821 0 22.5285 2.17001 16.4439 6.23562C10.3593 10.3012 5.61692 16.0798 2.81647 22.8407C0.0160315 29.6016 -0.716692 37.041 0.710961 44.2183C2.13861 51.3956 5.66252 57.9884 10.8371 63.1629C16.0116 68.3375 22.6044 71.8614 29.7817 73.289C36.959 74.7167 44.3984 73.984 51.1593 71.1835C57.9202 68.3831 63.6988 63.6407 67.7644 57.5561C71.83 51.4715 74 44.3179 74 37C74 27.187 70.1018 17.7759 63.163 10.837C56.2241 3.8982 46.813 0 37 0ZM31.7143 51.7736L18.5 38.5593L22.7022 34.3571L31.7143 43.3693L51.2979 23.7857L55.5159 27.9773L31.7143 51.7736Z" fill="#08D701"/>
</svg>
