<svg width="129" height="129" viewBox="0 0 129 129" fill="none" xmlns="http://www.w3.org/2000/svg">
<rect width="129" height="129" rx="64.5" fill="#E6E6E6"/>
<path d="M61.6875 84.45H67.3125V72.5512L71.8125 77.1112L75.75 73.05L64.5 61.65L53.25 73.05L57.2578 77.04L61.6875 72.5512V84.45ZM47.625 93C46.0781 93 44.7544 92.4423 43.6537 91.327C42.5531 90.2117 42.0019 88.8694 42 87.3V41.7C42 40.1325 42.5512 38.7911 43.6537 37.6758C44.7562 36.5605 46.08 36.0019 47.625 36H70.125L87 53.1V87.3C87 88.8675 86.4497 90.2098 85.3491 91.327C84.2484 92.4442 82.9238 93.0019 81.375 93H47.625ZM67.3125 55.95H81.375L67.3125 41.7V55.95Z" fill="black"/>
</svg>
