<svg width="28" height="27" viewBox="0 0 28 27" fill="none" xmlns="http://www.w3.org/2000/svg">
<path d="M20.3327 0.00488281H7.96649C6.03134 0.00725022 4.17614 0.777091 2.80785 2.14553C1.43957 3.51396 0.669937 5.36925 0.667786 7.3044L0.667786 19.6706C0.670153 21.6057 1.43999 23.4609 2.80843 24.8292C4.17686 26.1975 6.03215 26.9671 7.9673 26.9693H20.3335C22.2685 26.9669 24.1236 26.1972 25.4918 24.8289C26.8601 23.4607 27.6298 21.6056 27.6322 19.6706V7.3044C27.63 5.36911 26.8603 3.5137 25.4918 2.14524C24.1234 0.77678 22.268 0.00703505 20.3327 0.00488281ZM26.0514 19.6706C26.0497 21.1867 25.4466 22.6402 24.3745 23.7122C23.3024 24.7841 21.8488 25.387 20.3327 25.3885H7.96649C6.45038 25.387 4.99678 24.7841 3.92465 23.7122C2.85252 22.6402 2.24943 21.1867 2.24771 19.6706V7.3044C2.24922 5.78815 2.85221 4.33443 3.92437 3.26228C4.99652 2.19012 6.45024 1.58713 7.96649 1.58562H20.3335C21.8494 1.58734 23.3028 2.19032 24.3748 3.26227C25.4467 4.33423 26.0497 5.78762 26.0514 7.30359V19.6706Z" fill="white"/>
<path d="M14.1496 6.1377C12.6967 6.1377 11.2765 6.56853 10.0684 7.3757C8.86041 8.18287 7.91887 9.33014 7.36288 10.6724C6.80689 12.0147 6.66142 13.4917 6.94486 14.9167C7.22831 16.3416 7.92793 17.6505 8.95526 18.6779C9.9826 19.7052 11.2915 20.4048 12.7165 20.6883C14.1414 20.9717 15.6184 20.8262 16.9607 20.2703C18.303 19.7143 19.4503 18.7727 20.2574 17.5647C21.0646 16.3567 21.4955 14.9364 21.4955 13.4836C21.4931 11.536 20.7184 9.66897 19.3413 8.29187C17.9642 6.91476 16.0971 6.14006 14.1496 6.1377ZM14.1496 19.2552C13.0077 19.2552 11.8915 18.9166 10.9421 18.2822C9.99272 17.6479 9.25274 16.7462 8.81578 15.6913C8.37881 14.6363 8.26449 13.4755 8.48725 12.3556C8.71001 11.2357 9.25986 10.207 10.0673 9.39962C10.8747 8.59222 11.9034 8.04237 13.0233 7.81961C14.1432 7.59685 15.304 7.71117 16.3589 8.14814C17.4138 8.5851 18.3155 9.32507 18.9499 10.2745C19.5842 11.2239 19.9228 12.3401 19.9228 13.4819C19.9226 15.0133 19.3144 16.482 18.2319 17.5652C17.1493 18.6483 15.681 19.2574 14.1496 19.2585V19.2552Z" fill="white"/>
<path d="M21.6727 3.51074C21.2399 3.51074 20.8169 3.63907 20.457 3.87951C20.0972 4.11995 19.8167 4.46169 19.6511 4.86152C19.4855 5.26135 19.4422 5.70132 19.5266 6.12578C19.611 6.55024 19.8194 6.94012 20.1254 7.24614C20.4315 7.55216 20.8213 7.76056 21.2458 7.84499C21.6703 7.92942 22.1102 7.88609 22.5101 7.72047C22.9099 7.55486 23.2516 7.2744 23.4921 6.91456C23.7325 6.55472 23.8609 6.13166 23.8609 5.69889C23.8602 5.11875 23.6295 4.56256 23.2192 4.15234C22.809 3.74213 22.2528 3.51139 21.6727 3.51074ZM21.6727 6.29979C21.554 6.29963 21.4381 6.2643 21.3395 6.19827C21.241 6.13223 21.1641 6.03845 21.1189 5.92878C21.0736 5.81912 21.0618 5.69848 21.0851 5.58213C21.1083 5.46578 21.1655 5.35893 21.2495 5.27508C21.3334 5.19124 21.4404 5.13416 21.5567 5.11108C21.6731 5.08799 21.7937 5.09992 21.9034 5.14536C22.013 5.19081 22.1066 5.26772 22.1725 5.36639C22.2384 5.46506 22.2736 5.58105 22.2736 5.6997C22.2734 5.85893 22.21 6.01157 22.0973 6.12408C21.9846 6.2366 21.8319 6.29979 21.6727 6.29979Z" fill="white"/>
</svg>
