<svg width="28" height="27" viewBox="0 0 28 27" fill="none" xmlns="http://www.w3.org/2000/svg">
<path d="M4.34763 0.00505434C3.85506 0.000333534 3.36643 0.0930998 2.90986 0.278012C2.4533 0.462923 2.03782 0.736327 1.68736 1.08248C1.3369 1.42863 1.05838 1.84069 0.867837 2.29494C0.677292 2.74918 0.57849 3.23663 0.577118 3.72921C0.578409 4.22341 0.677834 4.71244 0.869625 5.1679C1.06142 5.62337 1.34175 6.03621 1.69437 6.38248C2.03278 6.72948 2.43866 7.00352 2.887 7.1877C3.33535 7.37187 3.81666 7.46229 4.30128 7.45338H4.39479C4.86388 7.45088 5.32777 7.35489 5.75933 7.17101C6.19088 6.98714 6.58145 6.71907 6.90819 6.38248C7.26081 6.03621 7.54114 5.62337 7.73293 5.1679C7.92472 4.71244 8.02415 4.22341 8.02544 3.72921C8.03869 3.24402 7.95026 2.76142 7.76582 2.31245C7.58139 1.86348 7.30504 1.45807 6.95454 1.1223C6.62114 0.765611 6.21724 0.482108 5.76847 0.289778C5.3197 0.0974476 4.83585 0.000489659 4.34763 0.00505434ZM6.25606 5.73115C6.00532 5.99368 5.7017 6.19996 5.36527 6.33635C5.02885 6.47275 4.66729 6.53614 4.30453 6.52234C3.57638 6.51991 2.87727 6.23648 2.35301 5.73115C2.08153 5.47393 1.8663 5.16324 1.72089 4.81868C1.57548 4.47412 1.50305 4.10317 1.50816 3.72921C1.50656 3.35805 1.57926 2.99031 1.72197 2.64767C1.86468 2.30503 2.07453 1.99442 2.33914 1.73413C2.60375 1.47384 2.91777 1.26914 3.26271 1.13208C3.60765 0.995025 3.97654 0.928388 4.34763 0.936095C5.06316 0.938124 5.74898 1.22245 6.25606 1.72728C6.52264 1.98785 6.73415 2.29933 6.87803 2.64323C7.0219 2.98713 7.0952 3.35644 7.09359 3.72921C7.09974 4.10257 7.02858 4.47316 6.88459 4.81769C6.74059 5.16221 6.52606 5.47322 6.25606 5.73115Z" fill="white"/>
<path d="M6.16337 7.88379H2.39204C2.2113 7.88535 2.03268 7.92287 1.86658 7.99417C1.70049 8.06546 1.55025 8.16909 1.42461 8.29904C1.29898 8.42899 1.20047 8.58265 1.13482 8.75106C1.06917 8.91946 1.0377 9.09925 1.04224 9.27994V25.5727C1.05132 25.9403 1.20144 26.2903 1.4615 26.5502C1.72156 26.8101 2.07164 26.96 2.43921 26.9689H6.16337C6.52371 26.9624 6.86817 26.8195 7.12728 26.5689C7.38638 26.3184 7.54085 25.979 7.55952 25.6191V9.27994C7.55045 8.91251 7.40044 8.56264 7.14055 8.30275C6.88066 8.04286 6.53079 7.89286 6.16337 7.88379ZM6.62848 25.6199C6.61822 25.7356 6.56455 25.843 6.47826 25.9207C6.39197 25.9984 6.27946 26.0406 6.16337 26.0387H2.43839C2.31779 26.0303 2.20427 25.9786 2.11879 25.8932C2.03331 25.8077 1.98163 25.6941 1.97328 25.5735V9.27994C1.97139 9.16384 2.01352 9.05134 2.09121 8.96505C2.1689 8.87876 2.27639 8.82508 2.39204 8.81482H6.16255C6.28316 8.82317 6.39667 8.87485 6.48215 8.96034C6.56764 9.04582 6.61932 9.15934 6.62767 9.27994L6.62848 25.6199Z" fill="white"/>
<path d="M21.482 7.41912H20.5063C19.6305 7.41757 18.764 7.59897 17.9624 7.95169C17.1608 8.30441 16.4416 8.82068 15.8511 9.46742V8.81691C15.8347 8.57537 15.7314 8.34794 15.5602 8.17676C15.389 8.00557 15.1616 7.90223 14.92 7.88587H10.2648C10.0275 7.89146 9.80077 7.98513 9.62869 8.14864C9.45661 8.31216 9.3515 8.53384 9.3338 8.77056V26.1343C9.3532 26.3662 9.4603 26.5821 9.63328 26.7378C9.80626 26.8936 10.0321 26.9776 10.2648 26.9726H15.3876C15.6203 26.9776 15.8462 26.8936 16.0192 26.7378C16.1921 26.5821 16.2992 26.3662 16.3186 26.1343V16.0774C16.3027 15.728 16.3567 15.379 16.4774 15.0508C16.5982 14.7225 16.7832 14.4217 17.0216 14.1659C17.2601 13.9101 17.5472 13.7044 17.8662 13.561C18.1852 13.4176 18.5296 13.3392 18.8792 13.3306C19.2406 13.3275 19.599 13.3958 19.9339 13.5316C20.2688 13.6674 20.5735 13.8679 20.8307 14.1218C21.0686 14.3753 21.2497 14.6767 21.3619 15.0058C21.4741 15.3349 21.5148 15.6842 21.4812 16.0302V26.0391C21.4976 26.2807 21.6009 26.5081 21.7721 26.6793C21.9433 26.8505 22.1707 26.9538 22.4123 26.9702H27.0675C27.309 26.9538 27.5364 26.8505 27.7076 26.6793C27.8788 26.5081 27.9822 26.2807 27.9985 26.0391V14.0291C28.0172 13.1638 27.8622 12.3036 27.5425 11.4993C27.2228 10.695 26.7451 9.96304 26.1375 9.34671C25.5298 8.73038 24.8047 8.24221 24.0051 7.91112C23.2054 7.58002 22.3475 7.41272 21.482 7.41912ZM27.0683 25.9936L27.0219 26.0399H22.4594L22.4131 16.031C22.4473 15.5665 22.3865 15.0999 22.2344 14.6597C22.0823 14.2194 21.8421 13.8148 21.5284 13.4705C21.1862 13.1285 20.7796 12.8578 20.3322 12.674C19.8847 12.4902 19.4052 12.3969 18.9215 12.3996C17.971 12.4251 17.0696 12.8268 16.415 13.5163C15.7603 14.2058 15.4061 15.1269 15.4299 16.0774V26.0391H10.3071V8.81528H14.916L14.9623 8.86163V11.7946L16.2194 10.5375L16.2658 10.4911C16.7622 9.82395 17.4084 9.28264 18.1523 8.91077C18.8962 8.53891 19.7169 8.34689 20.5486 8.35017H21.5243C22.2631 8.35204 22.994 8.50123 23.6744 8.78903C24.3548 9.07683 24.971 9.49744 25.4869 10.0263C26.0027 10.5551 26.4079 11.1815 26.6788 11.8688C26.9496 12.5561 27.0807 13.2905 27.0642 14.0291L27.0683 25.9936Z" fill="white"/>
</svg>
