<svg width="24" height="24" viewBox="0 0 24 24" fill="none" xmlns="http://www.w3.org/2000/svg">
<path d="M8.43333 17.7C8.18889 17.4111 8.06667 17.0831 8.06667 16.716C8.06667 16.3498 8.18889 16.0444 8.43333 15.8L10.9 13.3333H1.33333C0.955556 13.3333 0.639111 13.2053 0.384 12.9493C0.128 12.6942 0 12.3778 0 12C0 11.6222 0.128 11.3053 0.384 11.0493C0.639111 10.7942 0.955556 10.6667 1.33333 10.6667H10.9L8.43333 8.2C8.16667 7.93333 8.03333 7.61689 8.03333 7.25067C8.03333 6.88356 8.16667 6.56667 8.43333 6.3C8.67778 6.03333 8.98355 5.9 9.35067 5.9C9.71689 5.9 10.0222 6.02222 10.2667 6.26667L15.0667 11.0667C15.2 11.2 15.2947 11.3444 15.3507 11.5C15.4058 11.6556 15.4333 11.8222 15.4333 12C15.4333 12.1778 15.4058 12.3444 15.3507 12.5C15.2947 12.6556 15.2 12.8 15.0667 12.9333L10.2667 17.7333C10 18 9.68889 18.1222 9.33333 18.1C8.97778 18.0778 8.67778 17.9444 8.43333 17.7ZM13.3333 24C12.9556 24 12.6391 23.872 12.384 23.616C12.128 23.3609 12 23.0444 12 22.6667C12 22.2889 12.128 21.9724 12.384 21.7173C12.6391 21.4613 12.9556 21.3333 13.3333 21.3333H21.3333V2.66667H13.3333C12.9556 2.66667 12.6391 2.53867 12.384 2.28267C12.128 2.02756 12 1.71111 12 1.33333C12 0.955556 12.128 0.638667 12.384 0.382667C12.6391 0.127555 12.9556 0 13.3333 0H21.3333C22.0667 0 22.6947 0.260889 23.2173 0.782667C23.7391 1.30533 24 1.93333 24 2.66667V21.3333C24 22.0667 23.7391 22.6947 23.2173 23.2173C22.6947 23.7391 22.0667 24 21.3333 24H13.3333Z" fill="white"/>
</svg>
