<svg width="107" height="18" viewBox="0 0 107 18" fill="none" xmlns="http://www.w3.org/2000/svg">
<path d="M8.91667 14.4156L14.4272 17.9166L12.9648 11.3183L17.8333 6.87869L11.4223 6.29676L8.91667 0.083252L6.41108 6.29676L0 6.87869L4.85958 11.3183L3.40617 17.9166L8.91667 14.4156Z" fill="#FFD70E"/>
<path d="M31.2083 14.4156L36.7188 17.9166L35.2565 11.3183L40.125 6.87869L33.7139 6.29676L31.2083 0.083252L28.7027 6.29676L22.2917 6.87869L27.1512 11.3183L25.6978 17.9166L31.2083 14.4156Z" fill="#FFD70E"/>
<path d="M53.5 14.4156L59.0105 17.9166L57.5482 11.3183L62.4167 6.87869L56.0056 6.29676L53.5 0.083252L50.9944 6.29676L44.5833 6.87869L49.4429 11.3183L47.9895 17.9166L53.5 14.4156Z" fill="#FFD70E"/>
<path d="M75.7917 14.4156L81.3022 17.9166L79.8398 11.3183L84.7083 6.87869L78.2973 6.29676L75.7917 0.083252L73.2861 6.29676L66.875 6.87869L71.7346 11.3183L70.2812 17.9166L75.7917 14.4156Z" fill="#FFD70E"/>
<path d="M98.0833 14.4156L103.594 17.9166L102.131 11.3183L107 6.87869L100.589 6.29676L98.0833 0.083252L95.5777 6.29676L89.1667 6.87869L94.0262 11.3183L92.5728 17.9166L98.0833 14.4156Z" fill="#FFD70E"/>
</svg>
