<svg width="199" height="58" viewBox="0 0 199 58" fill="none" xmlns="http://www.w3.org/2000/svg">
<g clip-path="url(#clip0_1_52)">
<path d="M29.0394 34.0226H8.90952L34.1305 0.456596C32.4747 0.160426 30.7817 0 29.0394 0C12.9998 0 0 12.9821 0 29C0 42.3647 9.05781 53.6191 21.3779 56.9757L29.0394 34.0226Z" fill="white"/>
<path d="M36.7008 1.02426L29.0394 23.9774H49.1692L23.9606 57.5434C25.6164 57.8396 27.3094 58 29.0517 58C45.0913 58 58.0911 45.0179 58.0911 29C58.0911 15.6353 49.0333 4.38085 36.7132 1.02426H36.7008Z" fill="white"/>
<path d="M87.2788 11.9452H68.2116L68.9901 7.52734H88.0573L87.2788 11.9452ZM77.1088 29.4439H72.1906L76.0584 7.52734H80.9766L77.1088 29.4439Z" fill="white"/>
<path d="M89.6513 29.4439H84.7702L87.6742 12.9942H92.2216L91.3937 17.6712L91.6903 17.8316L89.639 29.4439H89.6513ZM91.4678 19.1397H90.5534L91.1713 15.635H91.9621C92.5182 14.8082 93.2349 14.1048 94.0876 13.5248C94.9402 12.9448 95.9535 12.661 97.1027 12.661C98.2519 12.661 99.1416 12.9201 99.7348 13.4261C100.328 13.9444 100.711 14.6354 100.859 15.5239C101.008 16.4125 100.983 17.3997 100.785 18.5227L100.526 20.0282H95.6446L95.8052 19.1397C95.9659 18.2512 95.9164 17.6342 95.6693 17.3133C95.4221 16.9925 94.9031 16.8197 94.1123 16.8197C93.3709 16.8197 92.7901 16.9801 92.3576 17.3133C91.9251 17.6465 91.6408 18.2512 91.4802 19.1397H91.4678Z" fill="white"/>
<path d="M106.692 29.765C105.271 29.765 104.159 29.4812 103.343 28.9136C102.528 28.3459 101.996 27.5808 101.749 26.6182C101.502 25.6557 101.49 24.5944 101.687 23.4097L103.528 12.9697H108.41L106.741 22.4225C106.531 23.5825 106.63 24.3846 107.013 24.8412C107.396 25.2978 108.212 25.5323 109.435 25.5323C110.226 25.5323 110.881 25.4336 111.425 25.2361C111.956 25.0387 112.389 24.7055 112.697 24.2365C113.006 23.7676 113.241 23.1136 113.389 22.2867H114.465L113.711 26.5442H112.796C112.376 27.1736 111.882 27.7289 111.289 28.2102C110.708 28.6914 110.028 29.0616 109.275 29.3331C108.521 29.6046 107.656 29.7404 106.692 29.7404V29.765ZM116.998 29.4442H112.45L113.266 24.8042L112.969 24.6438L115.021 12.9944H119.902L116.998 29.4442Z" fill="white"/>
<path d="M127.526 29.7648C125.648 29.7648 124.165 29.4193 123.065 28.7159C121.965 28.0125 121.236 27.0252 120.866 25.7542C120.495 24.4831 120.47 22.9776 120.779 21.2622C121.088 19.4976 121.693 17.9673 122.583 16.6839C123.473 15.4005 124.61 14.401 125.969 13.7099C127.341 13.0065 128.873 12.661 130.578 12.661C132.284 12.661 133.593 12.9695 134.656 13.5742C135.719 14.1912 136.46 15.0303 136.893 16.1039C137.325 17.1776 137.412 18.4363 137.165 19.8801C137.078 20.3367 136.979 20.781 136.843 21.2252C136.707 21.6571 136.596 22.0273 136.51 22.3112H122.756L123.288 19.3371H132.852L132.481 19.5963C132.679 18.9669 132.704 18.4363 132.543 18.0044C132.382 17.5725 132.074 17.2516 131.604 17.0295C131.134 16.795 130.504 16.6839 129.713 16.6839C128.354 16.6839 127.378 16.9925 126.772 17.5971C126.167 18.2142 125.759 19.078 125.561 20.2133L125.302 21.6571C125.141 22.5703 125.116 23.3107 125.215 23.8784C125.327 24.4461 125.623 24.8533 126.13 25.1248C126.624 25.3839 127.365 25.5197 128.354 25.5197C129.343 25.5197 130.072 25.4086 130.554 25.1742C131.036 24.9397 131.332 24.5818 131.419 24.0759L131.456 23.8784H136.3L136.238 24.1993C136.028 25.3716 135.534 26.3835 134.755 27.2103C133.977 28.0371 132.963 28.6665 131.74 29.1107C130.504 29.5427 129.108 29.7648 127.526 29.7648Z" fill="white"/>
<path d="M151.227 29.4439H144.678L140.588 7.52734H146.124L148.83 23.9524H149.164L157.566 7.52734H163.065L151.24 29.4439H151.227Z" fill="white"/>
<path d="M166.896 29.7648C165.129 29.7648 163.671 29.4193 162.534 28.7159C161.385 28.0125 160.594 27.0252 160.161 25.7418C159.717 24.4584 159.655 22.9529 159.964 21.2252C160.273 19.4976 160.866 17.9673 161.768 16.6839C162.658 15.4005 163.807 14.401 165.191 13.7099C166.575 13.0065 168.156 12.661 169.924 12.661C171.691 12.661 173.136 13.0065 174.236 13.7099C175.348 14.4133 176.127 15.4005 176.559 16.6839C176.992 17.9673 177.066 19.4852 176.757 21.2252C176.448 22.9652 175.855 24.4584 174.965 25.7418C174.076 27.0252 172.951 28.0248 171.592 28.7159C170.232 29.4193 168.676 29.7648 166.908 29.7648H166.896ZM167.65 25.4456C168.984 25.4456 169.961 25.1371 170.591 24.5324C171.221 23.9278 171.678 22.8171 171.963 21.2252C172.247 19.6086 172.185 18.498 171.765 17.8933C171.345 17.2886 170.48 16.9801 169.145 16.9801C167.81 16.9801 166.822 17.2886 166.179 17.8933C165.537 18.5103 165.067 19.621 164.783 21.2252C164.499 22.8171 164.573 23.9154 165.005 24.5324C165.438 25.1495 166.315 25.4456 167.65 25.4456Z" fill="white"/>
<path d="M182.441 29.4439H177.56L181.428 7.52734H186.309L182.441 29.4439Z" fill="white"/>
<path d="M198.296 17.0421H186.111L186.828 12.9821H199.012L198.296 17.0421ZM192.883 29.506C190.745 29.506 189.225 29.0864 188.323 28.2349C187.421 27.3834 187.149 25.9889 187.495 24.0515L189.361 13.4881L191.178 9.16895H195.046L192.512 23.4962C192.389 24.2119 192.475 24.6685 192.797 24.8413C193.118 25.014 193.798 25.1004 194.848 25.1004H196.875L196.158 29.1851C195.75 29.2715 195.256 29.3455 194.663 29.4196C194.07 29.4813 193.489 29.5183 192.896 29.5183L192.883 29.506Z" fill="white"/>
<path d="M70.3247 50.275H68.2116L70.5471 37.0461H72.6602L70.3247 50.275ZM79.6544 38.9588H70.8314L71.165 37.0461H79.988L79.6544 38.9588ZM78.3692 44.5861H69.8428L70.1888 42.6486H78.7152L78.3692 44.5861ZM77.6649 50.275H68.8419L69.1879 48.3376H78.0109L77.6649 50.275Z" fill="white"/>
<path d="M85.487 50.275H83.3739L85.7094 37.0461H87.9831L91.6656 44.6231L92.6912 46.7333H92.8519L93.2226 44.6231L94.5571 37.0461H96.6702L94.3347 50.275H92.061L88.3786 42.8091L87.3158 40.6618H87.1799L86.7968 42.8091L85.4746 50.275H85.487Z" fill="white"/>
<path d="M102.713 50.275H100.6L102.935 37.0461H105.048L102.713 50.275ZM112.043 38.9588H103.22L103.553 37.0461H112.376L112.043 38.9588ZM110.757 44.5861H102.231L102.577 42.6486H111.103L110.757 44.5861ZM110.053 50.275H101.23L101.576 48.3376H110.399L110.053 50.275Z" fill="white"/>
<path d="M117.875 50.275H115.762L118.098 37.0461H123.77C124.746 37.0461 125.561 37.1942 126.216 37.515C126.871 37.8235 127.341 38.2678 127.625 38.8601C127.909 39.4401 127.983 40.1559 127.835 41.0074C127.711 41.7231 127.452 42.3401 127.081 42.8831C126.698 43.4261 126.216 43.8457 125.611 44.1418C125.018 44.438 124.313 44.6108 123.51 44.6478L123.485 44.8082C123.943 44.9686 124.301 45.1908 124.56 45.4869C124.82 45.7831 125.03 46.1657 125.203 46.6222L126.55 50.2997H124.054L122.781 46.8814C122.645 46.4988 122.497 46.178 122.324 45.9188C122.151 45.6597 121.904 45.4746 121.595 45.3635C121.286 45.2525 120.866 45.1908 120.334 45.1908H118.777L117.875 50.2874V50.275ZM119.877 38.9588L119.086 43.4261H122.905C123.757 43.4261 124.4 43.2533 124.832 42.9078C125.265 42.5622 125.549 41.9822 125.697 41.1678C125.846 40.3533 125.747 39.835 125.438 39.4771C125.129 39.1316 124.548 38.9588 123.695 38.9588H119.877Z" fill="white"/>
<path d="M137.177 50.4725C135.929 50.4725 134.916 50.201 134.137 49.6457C133.359 49.0903 132.84 48.3005 132.543 47.2886C132.259 46.2644 132.234 45.055 132.481 43.6605C132.728 42.2661 133.186 41.0814 133.878 40.0571C134.57 39.0329 135.435 38.2431 136.473 37.6878C137.511 37.1325 138.685 36.8486 139.97 36.8486C141.168 36.8486 142.157 37.0461 142.936 37.4533C143.714 37.8605 144.27 38.4282 144.591 39.1563C144.913 39.8844 144.987 40.7605 144.814 41.7601L144.789 41.8959H142.515L142.54 41.7725C142.713 40.7605 142.577 40.0201 142.12 39.5759C141.663 39.1193 140.798 38.8971 139.525 38.8971C138.598 38.8971 137.82 39.0576 137.177 39.3661C136.534 39.6869 136.015 40.1805 135.632 40.8716C135.249 41.5627 134.953 42.4882 134.743 43.6482C134.533 44.8082 134.52 45.7091 134.669 46.4125C134.817 47.1159 135.175 47.6218 135.719 47.9303C136.263 48.2388 137.029 48.3993 138.005 48.3993C138.821 48.3993 139.513 48.3129 140.069 48.1401C140.625 47.9674 141.07 47.6712 141.416 47.264C141.762 46.8567 141.984 46.3014 142.108 45.6103L142.219 44.9933H144.27L144.221 45.2895L141.947 48.1771H141.675C141.44 48.572 141.107 48.9422 140.674 49.2878C140.254 49.6333 139.747 49.9171 139.154 50.1269C138.561 50.3367 137.894 50.4478 137.165 50.4478L137.177 50.4725ZM144.233 45.3265H138.03L138.351 43.4878H144.554L144.233 45.3265ZM143.368 50.275H141.416L142.009 46.9184L141.947 46.721L142.454 43.858H144.505L143.368 50.275Z" fill="white"/>
<path d="M154.922 45.6103H153.143L149.337 37.0461H151.783L153.55 41.1308L154.415 43.2039H154.576L156.133 41.1308L159.371 37.0461H161.768L154.934 45.6103H154.922ZM154.279 50.275H152.142L153.229 44.0925H155.367L154.279 50.275Z" fill="white"/>
</g>
<defs>
<clipPath id="clip0_1_52">
<rect width="199" height="58" fill="white"/>
</clipPath>
</defs>
</svg>
