<svg width="30" height="26" viewBox="0 0 30 26" fill="none" xmlns="http://www.w3.org/2000/svg">
<path fill-rule="evenodd" clip-rule="evenodd" d="M19.1578 0.596191C15.5756 0.596191 12.6717 3.50011 12.6717 7.08227C12.6717 10.6644 15.5756 13.5684 19.1578 13.5684C22.7399 13.5684 25.6439 10.6644 25.6439 7.08227C25.6439 3.50011 22.7399 0.596191 19.1578 0.596191ZM15.1009 7.08227C15.1009 4.84175 16.9172 3.02544 19.1578 3.02544C21.3983 3.02544 23.2146 4.84175 23.2146 7.08227C23.2146 9.3228 21.3983 11.1391 19.1578 11.1391C16.9172 11.1391 15.1009 9.3228 15.1009 7.08227ZM5.99961 6.30488C5.41432 6.30488 4.93985 6.77935 4.93985 7.36464V11.2447H1.05976C0.474472 11.2447 0 11.7192 0 12.3045C0 12.8898 0.474472 13.3642 1.05976 13.3642H4.93985V17.2448C4.93985 17.83 5.41432 18.3045 5.99961 18.3045C6.5849 18.3045 7.05937 17.83 7.05937 17.2448V13.3642H10.943C11.5283 13.3642 12.0027 12.8898 12.0027 12.3045C12.0027 11.7192 11.5283 11.2447 10.943 11.2447H7.05937V7.36464C7.05937 6.77935 6.5849 6.30488 5.99961 6.30488ZM14.5554 14.6581C11.3783 14.6581 8.80641 17.2342 8.80641 20.407V24.1887C8.80641 24.8595 9.35021 25.4033 10.021 25.4033C10.6919 25.4033 11.2357 24.8595 11.2357 24.1887V20.407C11.2357 18.5748 12.7211 17.0873 14.5554 17.0873H23.7634C25.5956 17.0873 27.0831 18.5727 27.0831 20.407V24.1887C27.0831 24.8595 27.6269 25.4033 28.2977 25.4033C28.9685 25.4033 29.5123 24.8595 29.5123 24.1887V20.407C29.5123 17.23 26.9362 14.6581 23.7634 14.6581H14.5554Z" fill="#26A9E0"/>
</svg>
