<svg width="22" height="18" viewBox="0 0 22 18" fill="none" xmlns="http://www.w3.org/2000/svg">
<path fill-rule="evenodd" clip-rule="evenodd" d="M0.309216 8.18973C0.183174 8.31448 0.113451 8.42909 0.0757294 8.53184C0.0272579 8.66797 0 8.82137 0 8.99791C0 9.17446 0.0272598 9.32786 0.0757313 9.46399C0.113455 9.56674 0.183176 9.68134 0.309216 9.8061L7.46257 16.8866C7.70776 17.1293 7.95231 17.2154 8.24131 17.1975C8.57337 17.177 8.82934 17.0648 9.04575 16.8601C9.27559 16.5811 9.3784 16.2878 9.3784 15.9545C9.3784 15.615 9.27279 15.3734 9.06918 15.1719L4.0105 10.1647H20.213C20.5766 10.1647 20.8419 10.0513 21.064 9.83067L21.0659 9.82872C21.2884 9.60931 21.4 9.35065 21.4 8.99791C21.4 8.64514 21.2883 8.38524 21.0649 8.16416C20.8431 7.94452 20.5775 7.83111 20.213 7.83111H4.0105L9.06918 2.82396C9.32075 2.57496 9.42808 2.31055 9.42808 1.99217C9.42808 1.67191 9.32032 1.407 9.06918 1.15842L9.05682 1.14618L9.04501 1.13343C8.8356 0.907309 8.59433 0.799805 8.26488 0.799805C7.91475 0.799805 7.66666 0.907232 7.46257 1.10925L0.309216 8.18973Z" fill="white"/>
</svg>
