<svg width="37" height="27" viewBox="0 0 37 27" fill="none" xmlns="http://www.w3.org/2000/svg">
<path d="M23.9605 11.9024L16.165 7.63753C15.9469 7.51826 15.7016 7.45782 15.453 7.46213C15.2045 7.46644 14.9614 7.53536 14.7476 7.66211C14.5338 7.78887 14.3567 7.96908 14.2337 8.18504C14.1106 8.40101 14.0459 8.64528 14.0459 8.89383V17.3504C14.0452 17.5984 14.109 17.8423 14.2311 18.0581C14.3531 18.274 14.5292 18.4544 14.742 18.5816C14.9549 18.7088 15.1971 18.7784 15.4451 18.7837C15.693 18.789 15.938 18.7297 16.156 18.6116L23.9516 14.4199C24.1794 14.2981 24.3701 14.1168 24.5033 13.8954C24.6366 13.674 24.7074 13.4206 24.7083 13.1622C24.7092 12.9038 24.6402 12.6499 24.5086 12.4276C24.3769 12.2052 24.1875 12.0226 23.9605 11.8992V11.9024ZM16.1137 16.2869V9.96635L21.9399 13.1538L16.1137 16.2869Z" fill="white"/>
<path d="M36.0575 6.3693V6.35303C36.0274 6.06681 35.7274 3.51763 34.4881 2.22149C33.4819 1.15813 32.1104 0.51521 30.6493 0.422021L30.4729 0.40088L30.4111 0.394375C25.7038 0.0520447 18.5962 0.00488281 18.5263 0.00488281H18.5141C18.445 0.00488281 11.3333 0.0520447 6.58459 0.394375L6.52198 0.40088L6.35447 0.421208C4.89042 0.520146 3.52237 1.18507 2.54005 2.27516C1.36019 3.55829 1.01867 6.05217 0.98371 6.3327L0.979644 6.3693C0.969074 6.48801 0.718628 9.32667 0.718628 12.1767V14.8405C0.718628 17.6865 0.969887 20.5325 0.980458 20.6488V20.6667C1.01054 20.9488 1.31059 23.4508 2.54412 24.7478C3.59322 25.821 5.01125 26.455 6.51059 26.5212C6.65533 26.5375 6.77974 26.5521 6.86512 26.5668L6.94643 26.5782C9.66393 26.8367 18.184 26.9644 18.5458 26.9693H18.5678C18.6393 26.9693 25.7469 26.9221 30.4534 26.5798L30.5152 26.5733C30.5745 26.5651 30.6412 26.5586 30.7152 26.5505C32.1648 26.4686 33.5236 25.8185 34.4971 24.7413C35.677 23.4582 36.0185 20.9643 36.0534 20.6845L36.0575 20.648C36.0681 20.5284 36.3193 17.6898 36.3193 14.8405V12.1767C36.3193 9.33074 36.0681 6.48476 36.0575 6.3693ZM34.2328 14.8405C34.2328 17.4784 34.0027 20.1942 33.9808 20.4439C33.8702 21.474 33.5196 22.4638 32.957 23.3337C32.6455 23.6809 32.2665 23.9608 31.8432 24.1566C31.4199 24.3523 30.9611 24.4597 30.4948 24.4721C30.4135 24.4803 30.3403 24.4884 30.2729 24.4973C25.7193 24.8226 18.8808 24.8771 18.5637 24.8787C18.21 24.8738 9.81436 24.7453 7.1798 24.5006C7.04482 24.4786 6.89927 24.4616 6.74559 24.4445C5.74778 24.4286 4.79395 24.0311 4.08013 23.3337L4.06062 23.3134C3.48707 22.4611 3.1416 21.4759 3.05721 20.452C3.04094 20.2633 2.80432 17.5149 2.80432 14.8414V12.1767C2.80432 9.54215 3.03444 6.82872 3.05639 6.57421C3.16178 5.54269 3.51282 4.55144 4.08013 3.68351C4.39929 3.32822 4.78595 3.03999 5.2176 2.83562C5.64925 2.63124 6.11725 2.5148 6.59435 2.49308L6.76429 2.47275C11.3829 2.1418 18.2718 2.09302 18.519 2.09058C18.7662 2.08814 25.6526 2.1418 30.2281 2.47275L30.4119 2.4947C31.3815 2.53392 32.2978 2.9489 32.9668 3.6518L32.9749 3.66074C33.5512 4.52708 33.8966 5.52632 33.9783 6.56363C33.9938 6.74171 34.2312 9.4958 34.2312 12.1743L34.2328 14.8405Z" fill="white"/>
</svg>
